<svg width="128" height="128" viewBox="0 0 128 128" fill="none" xmlns="http://www.w3.org/2000/svg">
    <g clip-path="url(#clip0_744_323)">
        <rect width="128" height="128" fill="white"/>
        <path d="M30.3973 56.44C28.9698 56.44 27.684 56.2102 26.54 55.7507C25.4058 55.2813 24.4622 54.6213 23.7093 53.7707C22.9662 52.92 22.4676 51.9129 22.2133 50.7493L23.4453 50.5147C23.8267 51.9618 24.6382 53.1058 25.88 53.9467C27.1218 54.7876 28.6276 55.208 30.3973 55.208C31.6293 55.208 32.7049 55.0124 33.624 54.6213C34.5431 54.2302 35.2569 53.6827 35.7653 52.9787C36.2738 52.2649 36.528 51.4338 36.528 50.4853C36.528 49.7716 36.396 49.1751 36.132 48.696C35.868 48.2169 35.5307 47.8307 35.12 47.5373C34.7191 47.2342 34.2987 46.9947 33.8587 46.8187C33.4187 46.6427 33.0276 46.5058 32.6853 46.408L27.4053 44.824C26.6427 44.5991 25.9827 44.3253 25.4253 44.0027C24.8778 43.68 24.428 43.3133 24.076 42.9027C23.724 42.492 23.46 42.0422 23.284 41.5533C23.1178 41.0644 23.0347 40.5413 23.0347 39.984C23.0347 38.9084 23.3231 37.9551 23.9 37.124C24.4867 36.2831 25.2982 35.628 26.3347 35.1587C27.3711 34.6796 28.5689 34.44 29.928 34.44C31.3067 34.44 32.5436 34.6942 33.6387 35.2027C34.7338 35.7111 35.6285 36.4298 36.3227 37.3587C37.0267 38.2778 37.4667 39.3582 37.6427 40.6L36.4107 40.8347C36.2738 39.808 35.912 38.9084 35.3253 38.136C34.7387 37.3538 33.9809 36.7476 33.052 36.3173C32.1231 35.8871 31.0818 35.672 29.928 35.672C28.8231 35.672 27.8502 35.8627 27.0093 36.244C26.1782 36.6253 25.528 37.1387 25.0587 37.784C24.5893 38.4293 24.3547 39.1529 24.3547 39.9547C24.3547 40.7956 24.5796 41.4702 25.0293 41.9787C25.4889 42.4773 26.0462 42.8684 26.7013 43.152C27.3565 43.4258 27.9822 43.6507 28.5787 43.8267L32.9493 45.1467C33.3209 45.2542 33.7756 45.4156 34.3133 45.6307C34.8511 45.836 35.3791 46.1342 35.8973 46.5253C36.4253 46.9165 36.8605 47.4347 37.2027 48.08C37.5547 48.7156 37.7307 49.5173 37.7307 50.4853C37.7307 51.3947 37.5596 52.216 37.2173 52.9493C36.8751 53.6827 36.3813 54.3084 35.736 54.8267C35.0907 55.3449 34.3182 55.7409 33.4187 56.0147C32.5191 56.2982 31.512 56.44 30.3973 56.44Z" fill="#0A0F0C"/>
        <path fill-rule="evenodd" clip-rule="evenodd" d="M40.6601 56V34.88H41.8921V44.9707V56H40.6601ZM41.8921 44.9707L52.3348 34.88H54.0361L43.6814 44.9707L54.9748 56H53.2734L41.8921 44.9707Z" fill="#0A0F0C"/>
        <path fill-rule="evenodd" clip-rule="evenodd" d="M63.2355 34.88L55.5502 56H56.8702L58.8578 50.5147H68.9255L70.9209 56H72.2409L64.5555 34.88H63.2355ZM68.4987 49.3413L63.8817 36.6493L59.2829 49.3413H68.4987Z" fill="#0A0F0C"/>
        <path d="M75.1852 56V34.88H76.4172V54.768H86.9185V56H75.1852Z" fill="#0A0F0C"/>
        <path fill-rule="evenodd" clip-rule="evenodd" d="M95.634 34.88L87.9487 56H89.2687L91.2562 50.5147H101.324L103.319 56H104.639L96.954 34.88H95.634ZM100.897 49.3413L96.2802 36.6493L91.6814 49.3413H100.897Z" fill="#0A0F0C"/>
        <path d="M101.081 88.944C100.177 89.56 99.0488 89.868 97.6968 89.868C96.3448 89.86 95.2168 89.548 94.3128 88.932C93.4088 88.308 92.7288 87.452 92.2728 86.364C91.8248 85.268 91.6048 84 91.6128 82.56C91.6208 81.12 91.8488 79.852 92.2968 78.756C92.7528 77.652 93.4288 76.792 94.3248 76.176C95.2208 75.56 96.3448 75.252 97.6968 75.252C99.0488 75.26 100.177 75.572 101.081 76.188C101.985 76.804 102.661 77.66 103.109 78.756C103.565 79.852 103.793 81.12 103.793 82.56C103.793 84 103.565 85.272 103.109 86.376C102.661 87.472 101.985 88.328 101.081 88.944Z" fill="#0A0F0C"/>
        <path d="M74.2183 89.508H70.7983V75.612H74.2183C74.5303 75.612 74.8783 75.624 75.2623 75.648C75.6543 75.664 75.9863 75.7 76.2583 75.756C77.2583 75.932 78.0703 76.336 78.6943 76.968C79.3183 77.6 79.7743 78.4 80.0623 79.368C80.3503 80.336 80.4943 81.4 80.4943 82.56C80.4943 83.712 80.3503 84.772 80.0623 85.74C79.7743 86.7 79.3183 87.5 78.6943 88.14C78.0783 88.78 77.2663 89.188 76.2583 89.364C75.9863 89.42 75.6583 89.46 75.2743 89.484C74.8983 89.5 74.5463 89.508 74.2183 89.508Z" fill="#0A0F0C"/>
        <path fill-rule="evenodd" clip-rule="evenodd" d="M0 128H128V0H0V128ZM126.667 1.33333H1.33333V64H126.667V1.33333ZM126.667 126.667V101.333H1.33333V126.667H126.667ZM93.3408 90.42C94.5248 91.18 95.9768 91.56 97.6968 91.56C99.4248 91.56 100.877 91.18 102.053 90.42C103.237 89.652 104.133 88.592 104.741 87.24C105.357 85.888 105.665 84.328 105.665 82.56C105.665 80.792 105.357 79.232 104.741 77.88C104.133 76.528 103.237 75.472 102.053 74.712C100.877 73.944 99.4248 73.56 97.6968 73.56C95.9768 73.56 94.5248 73.944 93.3408 74.712C92.1568 75.472 91.2608 76.528 90.6528 77.88C90.0448 79.232 89.7408 80.792 89.7408 82.56C89.7408 84.328 90.0448 85.888 90.6528 87.24C91.2608 88.592 92.1568 89.652 93.3408 90.42ZM25.7493 90.96C26.7173 91.36 27.8053 91.56 29.0133 91.56C29.9173 91.56 30.7493 91.444 31.5093 91.212C32.2773 90.988 32.9453 90.66 33.5133 90.228C34.0893 89.796 34.5333 89.264 34.8453 88.632C35.1653 88 35.3253 87.284 35.3253 86.484C35.3253 85.66 35.1773 84.98 34.8813 84.444C34.5853 83.908 34.2093 83.476 33.7533 83.148C33.3053 82.812 32.8413 82.556 32.3613 82.38C31.8893 82.196 31.4773 82.056 31.1253 81.96L27.7413 80.964C27.2933 80.836 26.8293 80.672 26.3493 80.472C25.8773 80.272 25.4773 79.996 25.1493 79.644C24.8293 79.292 24.6693 78.824 24.6693 78.24C24.6693 77.664 24.8453 77.152 25.1973 76.704C25.5493 76.256 26.0253 75.904 26.6253 75.648C27.2333 75.384 27.9253 75.252 28.7013 75.252C29.5013 75.26 30.2333 75.416 30.8973 75.72C31.5693 76.016 32.1213 76.44 32.5533 76.992C32.9853 77.544 33.2613 78.196 33.3813 78.948L35.2293 78.612C35.0373 77.58 34.6453 76.688 34.0533 75.936C33.4613 75.176 32.7093 74.592 31.7973 74.184C30.8933 73.776 29.8653 73.572 28.7133 73.572C27.5773 73.564 26.5653 73.752 25.6773 74.136C24.7893 74.52 24.0893 75.068 23.5773 75.78C23.0653 76.492 22.8093 77.336 22.8093 78.312C22.8093 78.888 22.9013 79.4 23.0853 79.848C23.2693 80.296 23.5253 80.688 23.8533 81.024C24.1893 81.352 24.5813 81.636 25.0293 81.876C25.4773 82.108 25.9653 82.3 26.4933 82.452L30.8733 83.76C31.1693 83.848 31.4733 83.964 31.7853 84.108C32.0973 84.244 32.3853 84.416 32.6493 84.624C32.9133 84.832 33.1253 85.096 33.2853 85.416C33.4453 85.728 33.5253 86.108 33.5253 86.556C33.5253 87.236 33.3333 87.824 32.9493 88.32C32.5653 88.816 32.0373 89.2 31.3653 89.472C30.6933 89.736 29.9333 89.868 29.0853 89.868C27.7973 89.868 26.6893 89.552 25.7613 88.92C24.8333 88.28 24.2253 87.4 23.9373 86.28L22.1373 86.58C22.3293 87.604 22.7373 88.488 23.3613 89.232C23.9933 89.976 24.7893 90.552 25.7493 90.96ZM42.3984 75.612V91.2H44.1624V75.612H50.1984V73.92H36.3624V75.612H42.3984ZM58.8667 91.56C57.5467 91.56 56.3787 91.288 55.3627 90.744C54.3547 90.2 53.5627 89.432 52.9867 88.44C52.4107 87.448 52.1227 86.288 52.1227 84.96V73.932L53.8987 73.92V84.732C53.8987 85.628 54.0507 86.404 54.3547 87.06C54.6587 87.708 55.0547 88.244 55.5427 88.668C56.0387 89.084 56.5787 89.392 57.1627 89.592C57.7467 89.792 58.3147 89.892 58.8667 89.892C59.4267 89.892 59.9987 89.792 60.5827 89.592C61.1667 89.392 61.7027 89.084 62.1907 88.668C62.6787 88.244 63.0747 87.708 63.3787 87.06C63.6827 86.404 63.8347 85.628 63.8347 84.732V73.92H65.6107V84.96C65.6107 86.288 65.3227 87.448 64.7467 88.44C64.1707 89.424 63.3747 90.192 62.3587 90.744C61.3507 91.288 60.1867 91.56 58.8667 91.56ZM68.9743 73.92V91.2H74.2183C74.3863 91.2 74.6983 91.196 75.1543 91.188C75.6103 91.172 76.0383 91.14 76.4383 91.092C77.7503 90.908 78.8463 90.42 79.7263 89.628C80.6063 88.836 81.2663 87.828 81.7063 86.604C82.1463 85.38 82.3663 84.032 82.3663 82.56C82.3663 81.088 82.1463 79.74 81.7063 78.516C81.2663 77.292 80.6063 76.284 79.7263 75.492C78.8463 74.7 77.7503 74.212 76.4383 74.028C76.0303 73.972 75.6023 73.94 75.1543 73.932C74.7143 73.924 74.4023 73.92 74.2183 73.92H68.9743ZM85.3393 73.92H87.1033V91.2H85.3393V73.92Z" fill="#0A0F0C"/>
        <path d="M0 0H128V128H0V0Z" fill="white"/>
        <path fill-rule="evenodd" clip-rule="evenodd" d="M120 8H8V120H120V8ZM0 0V128H128V0H0Z" fill="#0A0F0C"/>
        <rect y="64" width="128" height="37" fill="#0A0F0C"/>
    </g>
    <defs>
        <clipPath id="clip0_744_323">
            <rect width="128" height="128" fill="white"/>
        </clipPath>
    </defs>
</svg>
